<?xml version="1.0" encoding="UTF-8"?>
<!DOCTYPE svg PUBLIC "-//W3C//DTD SVG 1.1//EN" "http://www.w3.org/Graphics/SVG/1.1/DTD/svg11.dtd">
<svg xmlns="http://www.w3.org/2000/svg" version="1.1" width="500px" height="500px" style="shape-rendering:geometricPrecision; text-rendering:geometricPrecision; image-rendering:optimizeQuality; fill-rule:evenodd; clip-rule:evenodd" xmlns:xlink="http://www.w3.org/1999/xlink">
<g><path style="opacity:1" fill="#61a4f9" d="M 381.5,147.5 C 385.525,147.63 389.191,148.63 392.5,150.5C 397.352,153.385 402.685,155.052 408.5,155.5C 411.157,155.935 413.491,156.935 415.5,158.5C 415.923,159.265 416.257,160.098 416.5,161C 414.364,165.674 412.697,170.507 411.5,175.5C 408.724,175.089 408.057,175.922 409.5,178C 409.2,180.024 408.367,180.524 407,179.5C 406.474,183.599 405.641,187.599 404.5,191.5C 403.167,191.5 401.833,191.5 400.5,191.5C 400.167,191.5 399.833,191.5 399.5,191.5C 397.647,189.554 395.314,188.054 392.5,187C 386.471,184.247 380.137,182.247 373.5,181C 364.149,180.168 354.816,180.335 345.5,181.5C 344.007,182.141 343.007,183.141 342.5,184.5C 340.645,186.033 338.812,187.7 337,189.5C 336.059,191.727 334.892,193.727 333.5,195.5C 332.191,197.571 331.525,200.071 331.5,203C 330.384,209.603 333.051,213.77 339.5,215.5C 341.657,217.412 343.991,219.079 346.5,220.5C 347.259,223.362 349.092,225.362 352,226.5C 355.688,227.782 359.188,229.115 362.5,230.5C 362.5,231.5 362.5,232.5 362.5,233.5C 365.309,233.957 367.976,233.957 370.5,233.5C 370.703,235.044 371.37,236.378 372.5,237.5C 371.624,238.251 370.624,238.751 369.5,239C 376.441,237.889 382.441,239.889 387.5,245C 390.327,246.664 393.327,247.83 396.5,248.5C 396.5,249.5 396.5,250.5 396.5,251.5C 397.675,251.281 398.675,251.614 399.5,252.5C 400.833,254.5 402.167,256.5 403.5,258.5C 405.567,259.134 407.4,260.134 409,261.5C 409.57,264.933 410.903,267.933 413,270.5C 413.671,271.252 414.504,271.586 415.5,271.5C 416.638,276.524 416.638,281.524 415.5,286.5C 417.525,290.931 418.025,295.598 417,300.5C 416.5,301 416,301.5 415.5,302C 416.116,303.4 416.449,304.9 416.5,306.5C 415.709,310.749 413.875,314.416 411,317.5C 410.667,319.5 410.333,321.5 410,323.5C 409.667,323.167 409.333,322.833 409,322.5C 408.506,324.134 408.34,325.801 408.5,327.5C 406.801,327.34 405.134,327.506 403.5,328C 404.167,328.333 404.833,328.667 405.5,329C 403.942,330.202 402.275,331.368 400.5,332.5C 400.616,335.91 398.95,337.244 395.5,336.5C 395.5,337.5 395.5,338.5 395.5,339.5C 392.873,340.092 390.206,340.425 387.5,340.5C 387.567,341.959 387.234,343.292 386.5,344.5C 377.571,347.261 368.571,349.261 359.5,350.5C 346.139,350.713 332.806,350.213 319.5,349C 309.596,346.114 299.93,342.781 290.5,339C 289.512,327.247 289.179,315.414 289.5,303.5C 291.833,303.5 294.167,303.5 296.5,303.5C 299.032,305.622 301.699,307.622 304.5,309.5C 311.462,310.494 318.129,312.328 324.5,315C 327.482,315.498 330.482,315.665 333.5,315.5C 334.167,315.5 334.833,315.5 335.5,315.5C 344.644,317.982 353.977,318.149 363.5,316C 364.381,315.292 365.047,314.458 365.5,313.5C 365.833,313.5 366.167,313.5 366.5,313.5C 371.766,313.041 375.266,310.375 377,305.5C 377.192,301.78 378.025,298.28 379.5,295C 377.772,291.227 377.439,287.393 378.5,283.5C 377.585,282.672 376.919,281.672 376.5,280.5C 378.13,277.857 379.797,275.191 381.5,272.5C 381.192,271.692 380.692,271.025 380,270.5C 376.879,273.78 374.379,277.447 372.5,281.5C 370.679,280.272 369.679,278.606 369.5,276.5C 370.5,276.5 371.5,276.5 372.5,276.5C 372.5,275.5 372.5,274.5 372.5,273.5C 370.255,275.361 367.588,276.361 364.5,276.5C 362.566,275.89 360.899,274.89 359.5,273.5C 358.091,271.583 356.424,269.75 354.5,268C 351.58,267.592 349.246,266.259 347.5,264C 350.371,263.882 353.038,263.216 355.5,262C 350.781,260.005 346.114,260.171 341.5,262.5C 339.185,262.201 339.185,261.368 341.5,260C 339.187,257.504 336.52,257.004 333.5,258.5C 330.644,256.956 327.644,255.956 324.5,255.5C 323.116,253.297 321.449,251.297 319.5,249.5C 316.675,248.745 314.009,247.745 311.5,246.5C 309.129,243.966 306.963,241.3 305,238.5C 304.187,236.564 303.687,234.564 303.5,232.5C 302.178,232.67 301.011,232.337 300,231.5C 294.59,222.787 292.09,213.287 292.5,203C 292.538,196.793 293.038,190.626 294,184.5C 295.53,183.08 297.363,182.08 299.5,181.5C 298.48,179.568 298.313,177.568 299,175.5C 300.845,173.133 302.011,170.467 302.5,167.5C 307.981,159.746 315.314,154.413 324.5,151.5C 328.167,150.167 331.833,150.167 335.5,151.5C 335.5,150.5 335.5,149.5 335.5,148.5C 350.757,146.221 366.091,145.888 381.5,147.5 Z"/></g>
<g><path style="opacity:1" fill="#91baf1" d="M 381.5,147.5 C 366.091,145.888 350.757,146.221 335.5,148.5C 335.5,149.5 335.5,150.5 335.5,151.5C 331.833,150.167 328.167,150.167 324.5,151.5C 330.4,148.604 336.733,146.77 343.5,146C 353.833,145.333 364.167,145.333 374.5,146C 377.036,146.186 379.369,146.686 381.5,147.5 Z"/></g>
<g><path style="opacity:1" fill="#a3c9f1" d="M 392.5,150.5 C 398.166,151.39 403.5,153.057 408.5,155.5C 402.685,155.052 397.352,153.385 392.5,150.5 Z"/></g>
<g><path style="opacity:0.788" fill="#989898" d="M 80.5,152.5 C 80.5,153.833 80.5,155.167 80.5,156.5C 79.6091,155.739 78.9424,154.739 78.5,153.5C 78.9569,152.702 79.6236,152.369 80.5,152.5 Z"/></g>
<g><path style="opacity:1" fill="#080808" d="M 80.5,152.5 C 94.1707,152.333 107.837,152.5 121.5,153C 124.331,159.328 126.665,165.828 128.5,172.5C 128.12,174.698 128.787,176.365 130.5,177.5C 130.5,177.833 130.5,178.167 130.5,178.5C 130.12,180.698 130.787,182.365 132.5,183.5C 132.5,183.833 132.5,184.167 132.5,184.5C 132.259,186.898 132.926,188.898 134.5,190.5C 138.603,199.805 141.936,209.471 144.5,219.5C 144.259,221.898 144.926,223.898 146.5,225.5C 147.338,225.842 147.672,226.508 147.5,227.5C 147.12,229.698 147.787,231.365 149.5,232.5C 149.5,232.833 149.5,233.167 149.5,233.5C 149.12,235.698 149.787,237.365 151.5,238.5C 151.5,238.833 151.5,239.167 151.5,239.5C 151.259,241.898 151.926,243.898 153.5,245.5C 155.097,247.848 156.097,250.514 156.5,253.5C 156.12,255.698 156.787,257.365 158.5,258.5C 158.5,258.833 158.5,259.167 158.5,259.5C 158.12,261.698 158.787,263.365 160.5,264.5C 160.5,264.833 160.5,265.167 160.5,265.5C 160.259,267.898 160.926,269.898 162.5,271.5C 163.931,272.78 164.598,274.447 164.5,276.5C 164.345,279.716 165.345,282.383 167.5,284.5C 167.5,284.833 167.5,285.167 167.5,285.5C 167.12,287.698 167.787,289.365 169.5,290.5C 170.234,291.708 170.567,293.041 170.5,294.5C 170.259,296.898 170.926,298.898 172.5,300.5C 173.338,300.842 173.672,301.508 173.5,302.5C 173.231,304.429 173.731,306.095 175,307.5C 177.039,306.022 177.872,304.022 177.5,301.5C 177.5,301.167 177.5,300.833 177.5,300.5C 179.213,299.365 179.88,297.698 179.5,295.5C 179.5,295.167 179.5,294.833 179.5,294.5C 181.213,293.365 181.88,291.698 181.5,289.5C 181.328,288.508 181.662,287.842 182.5,287.5C 184.074,285.898 184.741,283.898 184.5,281.5C 184.698,277.908 185.698,274.574 187.5,271.5C 189.213,270.365 189.88,268.698 189.5,266.5C 189.5,266.167 189.5,265.833 189.5,265.5C 191.213,264.365 191.88,262.698 191.5,260.5C 191.5,260.167 191.5,259.833 191.5,259.5C 193.213,258.365 193.88,256.698 193.5,254.5C 195.634,247.432 197.967,240.432 200.5,233.5C 202.213,232.365 202.88,230.698 202.5,228.5C 204.074,226.898 204.741,224.898 204.5,222.5C 204.402,220.447 205.069,218.78 206.5,217.5C 208.074,215.898 208.741,213.898 208.5,211.5C 208.5,211.167 208.5,210.833 208.5,210.5C 210.213,209.365 210.88,207.698 210.5,205.5C 210.5,205.167 210.5,204.833 210.5,204.5C 212.213,203.365 212.88,201.698 212.5,199.5C 212.5,199.167 212.5,198.833 212.5,198.5C 214.213,197.365 214.88,195.698 214.5,193.5C 216.3,187.432 218.3,181.432 220.5,175.5C 222.655,173.383 223.655,170.716 223.5,167.5C 225.074,165.898 225.741,163.898 225.5,161.5C 226.071,158.523 227.071,155.69 228.5,153C 242.163,152.5 255.829,152.333 269.5,152.5C 269.5,153.833 269.5,155.167 269.5,156.5C 269.267,159.542 268.267,162.208 266.5,164.5C 265.262,166.214 264.595,168.214 264.5,170.5C 263.23,175.312 261.563,179.978 259.5,184.5C 258.069,185.78 257.402,187.447 257.5,189.5C 256.23,194.312 254.563,198.978 252.5,203.5C 251.069,204.78 250.402,206.447 250.5,208.5C 249.395,213.375 247.728,218.042 245.5,222.5C 244.069,223.78 243.402,225.447 243.5,227.5C 243.267,230.542 242.267,233.208 240.5,235.5C 239.463,236.93 238.796,238.597 238.5,240.5C 238.5,240.833 238.5,241.167 238.5,241.5C 237.069,242.78 236.402,244.447 236.5,246.5C 236.267,249.542 235.267,252.208 233.5,254.5C 232.262,256.214 231.595,258.214 231.5,260.5C 230.069,261.78 229.402,263.447 229.5,265.5C 229.095,268.715 228.095,271.715 226.5,274.5C 225.069,275.78 224.402,277.447 224.5,279.5C 220.896,290.646 216.896,301.646 212.5,312.5C 211.069,313.78 210.402,315.447 210.5,317.5C 209.354,322.438 207.687,327.105 205.5,331.5C 204.069,332.78 203.402,334.447 203.5,336.5C 202.794,341.075 201.127,345.241 198.5,349C 182.833,349.667 167.167,349.667 151.5,349C 145.751,336.923 141.085,324.423 137.5,311.5C 137.34,309.847 136.674,308.514 135.5,307.5C 133.905,304.715 132.905,301.715 132.5,298.5C 132.598,296.447 131.931,294.78 130.5,293.5C 126.104,282.646 122.104,271.646 118.5,260.5C 118.598,258.447 117.931,256.78 116.5,255.5C 114.437,250.978 112.77,246.312 111.5,241.5C 111.598,239.447 110.931,237.78 109.5,236.5C 107.437,231.978 105.77,227.312 104.5,222.5C 104.405,220.214 103.738,218.214 102.5,216.5C 100.06,212.183 98.3928,207.517 97.5,202.5C 97.2041,200.597 96.5375,198.93 95.5,197.5C 91.7207,188.753 88.3873,179.753 85.5,170.5C 85.5979,168.447 84.9313,166.78 83.5,165.5C 81.9049,162.715 80.9049,159.715 80.5,156.5C 80.5,155.167 80.5,153.833 80.5,152.5 Z"/></g>
<g><path style="opacity:0.733" fill="#999999" d="M 269.5,152.5 C 271.781,153.634 271.781,154.968 269.5,156.5C 269.5,155.167 269.5,153.833 269.5,152.5 Z"/></g>
<g><path style="opacity:0.867" fill="#868686" d="M 225.5,161.5 C 225.741,163.898 225.074,165.898 223.5,167.5C 223.595,165.214 224.262,163.214 225.5,161.5 Z"/></g>
<g><path style="opacity:0.016" fill="#c3c3c3" d="M 266.5,164.5 C 266.741,166.898 266.074,168.898 264.5,170.5C 264.595,168.214 265.262,166.214 266.5,164.5 Z"/></g>
<g><path style="opacity:0.29" fill="#b2b2b2" d="M 83.5,165.5 C 84.9313,166.78 85.5979,168.447 85.5,170.5C 84.0687,169.22 83.4021,167.553 83.5,165.5 Z"/></g>
<g><path style="opacity:0.89" fill="#7f7f7f" d="M 223.5,167.5 C 223.655,170.716 222.655,173.383 220.5,175.5C 221.129,172.603 222.129,169.936 223.5,167.5 Z"/></g>
<g><path style="opacity:0.847" fill="#878787" d="M 128.5,172.5 C 129.537,173.93 130.204,175.597 130.5,177.5C 128.787,176.365 128.12,174.698 128.5,172.5 Z"/></g>
<g><path style="opacity:1" fill="#96bdef" d="M 415.5,158.5 C 417.252,158.418 418.252,159.251 418.5,161C 414.226,172.183 409.393,183.016 404,193.5C 402.541,193.192 401.374,192.525 400.5,191.5C 401.833,191.5 403.167,191.5 404.5,191.5C 405.641,187.599 406.474,183.599 407,179.5C 408.367,180.524 409.2,180.024 409.5,178C 408.057,175.922 408.724,175.089 411.5,175.5C 412.697,170.507 414.364,165.674 416.5,161C 416.257,160.098 415.923,159.265 415.5,158.5 Z"/></g>
<g><path style="opacity:0.847" fill="#818181" d="M 130.5,178.5 C 131.537,179.93 132.204,181.597 132.5,183.5C 130.787,182.365 130.12,180.698 130.5,178.5 Z"/></g>
<g><path style="opacity:1" fill="#94beef" d="M 399.5,191.5 C 386.417,185.882 372.75,182.549 358.5,181.5C 353.059,182.066 347.726,183.066 342.5,184.5C 343.007,183.141 344.007,182.141 345.5,181.5C 354.816,180.335 364.149,180.168 373.5,181C 380.137,182.247 386.471,184.247 392.5,187C 395.314,188.054 397.647,189.554 399.5,191.5 Z"/></g>
<g><path style="opacity:0.278" fill="#b9b9b9" d="M 259.5,184.5 C 259.598,186.553 258.931,188.22 257.5,189.5C 257.402,187.447 258.069,185.78 259.5,184.5 Z"/></g>
<g><path style="opacity:0.749" fill="#7a7a7a" d="M 132.5,184.5 C 134.074,186.102 134.741,188.102 134.5,190.5C 132.926,188.898 132.259,186.898 132.5,184.5 Z"/></g>
<g><path style="opacity:0.859" fill="#888888" d="M 214.5,193.5 C 214.88,195.698 214.213,197.365 212.5,198.5C 212.796,196.597 213.463,194.93 214.5,193.5 Z"/></g>
<g><path style="opacity:0.004" fill="#c5c5c5" d="M 95.5,197.5 C 96.5375,198.93 97.2041,200.597 97.5,202.5C 95.7868,201.365 95.1201,199.698 95.5,197.5 Z"/></g>
<g><path style="opacity:0.99" fill="#94bbec" d="M 333.5,195.5 C 332.02,203.337 334.02,210.004 339.5,215.5C 333.051,213.77 330.384,209.603 331.5,203C 331.525,200.071 332.191,197.571 333.5,195.5 Z"/></g>
<g><path style="opacity:0.839" fill="#818181" d="M 212.5,199.5 C 212.88,201.698 212.213,203.365 210.5,204.5C 210.796,202.597 211.463,200.93 212.5,199.5 Z"/></g>
<g><path style="opacity:0.275" fill="#b7b7b7" d="M 252.5,203.5 C 252.598,205.553 251.931,207.22 250.5,208.5C 250.402,206.447 251.069,204.78 252.5,203.5 Z"/></g>
<g><path style="opacity:0.894" fill="#838383" d="M 210.5,205.5 C 210.88,207.698 210.213,209.365 208.5,210.5C 208.402,208.447 209.069,206.78 210.5,205.5 Z"/></g>
<g><path style="opacity:0.729" fill="#777777" d="M 208.5,211.5 C 208.741,213.898 208.074,215.898 206.5,217.5C 206.259,215.102 206.926,213.102 208.5,211.5 Z"/></g>
<g><path style="opacity:0.016" fill="#c7c7c7" d="M 102.5,216.5 C 103.738,218.214 104.405,220.214 104.5,222.5C 102.926,220.898 102.259,218.898 102.5,216.5 Z"/></g>
<g><path style="opacity:0.98" fill="#626262" d="M 144.5,219.5 C 146.074,221.102 146.741,223.102 146.5,225.5C 144.926,223.898 144.259,221.898 144.5,219.5 Z"/></g>
<g><path style="opacity:0.898" fill="#818181" d="M 204.5,222.5 C 204.741,224.898 204.074,226.898 202.5,228.5C 202.595,226.214 203.262,224.214 204.5,222.5 Z"/></g>
<g><path style="opacity:0.314" fill="#aaaaaa" d="M 245.5,222.5 C 245.598,224.553 244.931,226.22 243.5,227.5C 243.402,225.447 244.069,223.78 245.5,222.5 Z"/></g>
<g><path style="opacity:1" fill="#81b2ee" d="M 346.5,220.5 C 354.566,224.864 362.566,229.197 370.5,233.5C 367.976,233.957 365.309,233.957 362.5,233.5C 362.5,232.5 362.5,231.5 362.5,230.5C 359.188,229.115 355.688,227.782 352,226.5C 349.092,225.362 347.259,223.362 346.5,220.5 Z"/></g>
<g><path style="opacity:0.847" fill="#828282" d="M 147.5,227.5 C 148.537,228.93 149.204,230.597 149.5,232.5C 147.787,231.365 147.12,229.698 147.5,227.5 Z"/></g>
<g><path style="opacity:0.882" fill="#7a7a7a" d="M 202.5,228.5 C 202.88,230.698 202.213,232.365 200.5,233.5C 200.796,231.597 201.463,229.93 202.5,228.5 Z"/></g>
<g><path style="opacity:1" fill="#94bcf0" d="M 302.5,167.5 C 302.011,170.467 300.845,173.133 299,175.5C 298.313,177.568 298.48,179.568 299.5,181.5C 297.363,182.08 295.53,183.08 294,184.5C 293.038,190.626 292.538,196.793 292.5,203C 292.09,213.287 294.59,222.787 300,231.5C 301.011,232.337 302.178,232.67 303.5,232.5C 303.687,234.564 304.187,236.564 305,238.5C 306.963,241.3 309.129,243.966 311.5,246.5C 300.653,238.167 293.819,227.167 291,213.5C 288.609,198.984 290.943,185.318 298,172.5C 299.049,170.382 300.549,168.716 302.5,167.5 Z"/></g>
<g><path style="opacity:0.859" fill="#7a7a7a" d="M 149.5,233.5 C 150.537,234.93 151.204,236.597 151.5,238.5C 149.787,237.365 149.12,235.698 149.5,233.5 Z"/></g>
<g><path style="opacity:0.004" fill="#c5c5c5" d="M 240.5,235.5 C 240.88,237.698 240.213,239.365 238.5,240.5C 238.796,238.597 239.463,236.93 240.5,235.5 Z"/></g>
<g><path style="opacity:0.255" fill="#bfbfbf" d="M 109.5,236.5 C 110.931,237.78 111.598,239.447 111.5,241.5C 110.069,240.22 109.402,238.553 109.5,236.5 Z"/></g>
<g><path style="opacity:1" fill="#8cb7ee" d="M 370.5,233.5 C 380.079,236.955 388.746,241.955 396.5,248.5C 393.327,247.83 390.327,246.664 387.5,245C 382.441,239.889 376.441,237.889 369.5,239C 370.624,238.751 371.624,238.251 372.5,237.5C 371.37,236.378 370.703,235.044 370.5,233.5 Z"/></g>
<g><path style="opacity:0.925" fill="#6f6f6f" d="M 151.5,239.5 C 153.074,241.102 153.741,243.102 153.5,245.5C 151.926,243.898 151.259,241.898 151.5,239.5 Z"/></g>
<g><path style="opacity:0.325" fill="#aeaeae" d="M 238.5,241.5 C 238.598,243.553 237.931,245.22 236.5,246.5C 236.402,244.447 237.069,242.78 238.5,241.5 Z"/></g>
<g><path style="opacity:1" fill="#92baed" d="M 311.5,246.5 C 314.009,247.745 316.675,248.745 319.5,249.5C 321.449,251.297 323.116,253.297 324.5,255.5C 319.335,253.662 315.001,250.662 311.5,246.5 Z"/></g>
<g><path style="opacity:0.827" fill="#848484" d="M 156.5,253.5 C 157.537,254.93 158.204,256.597 158.5,258.5C 156.787,257.365 156.12,255.698 156.5,253.5 Z"/></g>
<g><path style="opacity:0.812" fill="#8e8e8e" d="M 193.5,254.5 C 193.88,256.698 193.213,258.365 191.5,259.5C 191.796,257.597 192.463,255.93 193.5,254.5 Z"/></g>
<g><path style="opacity:0.008" fill="#c7c7c7" d="M 233.5,254.5 C 233.741,256.898 233.074,258.898 231.5,260.5C 231.595,258.214 232.262,256.214 233.5,254.5 Z"/></g>
<g><path style="opacity:0.294" fill="#b8b8b8" d="M 116.5,255.5 C 117.931,256.78 118.598,258.447 118.5,260.5C 117.069,259.22 116.402,257.553 116.5,255.5 Z"/></g>
<g><path style="opacity:1" fill="#7baff0" d="M 324.5,255.5 C 327.644,255.956 330.644,256.956 333.5,258.5C 336.52,257.004 339.187,257.504 341.5,260C 339.185,261.368 339.185,262.201 341.5,262.5C 346.114,260.171 350.781,260.005 355.5,262C 353.038,263.216 350.371,263.882 347.5,264C 349.246,266.259 351.58,267.592 354.5,268C 356.424,269.75 358.091,271.583 359.5,273.5C 347.418,268.293 335.752,262.293 324.5,255.5 Z"/></g>
<g><path style="opacity:0.933" fill="#828282" d="M 158.5,259.5 C 159.931,260.78 160.598,262.447 160.5,264.5C 158.787,263.365 158.12,261.698 158.5,259.5 Z"/></g>
<g><path style="opacity:0.827" fill="#818181" d="M 191.5,260.5 C 191.88,262.698 191.213,264.365 189.5,265.5C 189.796,263.597 190.463,261.93 191.5,260.5 Z"/></g>
<g><path style="opacity:0.353" fill="#a9a9a9" d="M 231.5,260.5 C 231.598,262.553 230.931,264.22 229.5,265.5C 229.402,263.447 230.069,261.78 231.5,260.5 Z"/></g>
<g><path style="opacity:1" fill="#8bb5ef" d="M 396.5,248.5 C 405.409,254.073 411.743,261.739 415.5,271.5C 414.504,271.586 413.671,271.252 413,270.5C 410.903,267.933 409.57,264.933 409,261.5C 407.4,260.134 405.567,259.134 403.5,258.5C 402.167,256.5 400.833,254.5 399.5,252.5C 398.675,251.614 397.675,251.281 396.5,251.5C 396.5,250.5 396.5,249.5 396.5,248.5 Z"/></g>
<g><path style="opacity:0.937" fill="#808080" d="M 189.5,266.5 C 189.88,268.698 189.213,270.365 187.5,271.5C 187.402,269.447 188.069,267.78 189.5,266.5 Z"/></g>
<g><path style="opacity:0.733" fill="#777777" d="M 160.5,265.5 C 162.074,267.102 162.741,269.102 162.5,271.5C 160.926,269.898 160.259,267.898 160.5,265.5 Z"/></g>
<g><path style="opacity:0.239" fill="#c3c3c3" d="M 226.5,274.5 C 226.598,276.553 225.931,278.22 224.5,279.5C 224.402,277.447 225.069,275.78 226.5,274.5 Z"/></g>
<g><path style="opacity:0.89" fill="#7e7e7e" d="M 164.5,276.5 C 165.871,278.936 166.871,281.603 167.5,284.5C 165.345,282.383 164.345,279.716 164.5,276.5 Z"/></g>
<g><path style="opacity:1" fill="#79aff2" d="M 366.5,313.5 C 376.375,307.267 379.208,298.6 375,287.5C 371.97,283.305 368.47,279.639 364.5,276.5C 367.588,276.361 370.255,275.361 372.5,273.5C 372.5,274.5 372.5,275.5 372.5,276.5C 371.5,276.5 370.5,276.5 369.5,276.5C 369.679,278.606 370.679,280.272 372.5,281.5C 374.379,277.447 376.879,273.78 380,270.5C 380.692,271.025 381.192,271.692 381.5,272.5C 379.797,275.191 378.13,277.857 376.5,280.5C 376.919,281.672 377.585,282.672 378.5,283.5C 377.439,287.393 377.772,291.227 379.5,295C 378.025,298.28 377.192,301.78 377,305.5C 375.266,310.375 371.766,313.041 366.5,313.5 Z"/></g>
<g><path style="opacity:0.976" fill="#606060" d="M 184.5,281.5 C 184.741,283.898 184.074,285.898 182.5,287.5C 182.259,285.102 182.926,283.102 184.5,281.5 Z"/></g>
<g><path style="opacity:0.988" fill="#797979" d="M 167.5,285.5 C 168.931,286.78 169.598,288.447 169.5,290.5C 167.787,289.365 167.12,287.698 167.5,285.5 Z"/></g>
<g><path style="opacity:0.851" fill="#828282" d="M 181.5,289.5 C 181.88,291.698 181.213,293.365 179.5,294.5C 179.796,292.597 180.463,290.93 181.5,289.5 Z"/></g>
<g><path style="opacity:1" fill="#8db7ef" d="M 415.5,271.5 C 423.054,291.481 420.887,310.481 409,328.5C 402.725,335.706 395.225,341.04 386.5,344.5C 387.234,343.292 387.567,341.959 387.5,340.5C 390.206,340.425 392.873,340.092 395.5,339.5C 395.5,338.5 395.5,337.5 395.5,336.5C 398.95,337.244 400.616,335.91 400.5,332.5C 402.275,331.368 403.942,330.202 405.5,329C 404.833,328.667 404.167,328.333 403.5,328C 405.134,327.506 406.801,327.34 408.5,327.5C 408.34,325.801 408.506,324.134 409,322.5C 409.333,322.833 409.667,323.167 410,323.5C 410.333,321.5 410.667,319.5 411,317.5C 413.875,314.416 415.709,310.749 416.5,306.5C 416.449,304.9 416.116,303.4 415.5,302C 416,301.5 416.5,301 417,300.5C 418.025,295.598 417.525,290.931 415.5,286.5C 416.638,281.524 416.638,276.524 415.5,271.5 Z"/></g>
<g><path style="opacity:0.353" fill="#aaaaaa" d="M 130.5,293.5 C 131.931,294.78 132.598,296.447 132.5,298.5C 131.069,297.22 130.402,295.553 130.5,293.5 Z"/></g>
<g><path style="opacity:0.945" fill="#676767" d="M 170.5,294.5 C 172.074,296.102 172.741,298.102 172.5,300.5C 170.926,298.898 170.259,296.898 170.5,294.5 Z"/></g>
<g><path style="opacity:0.871" fill="#777777" d="M 179.5,295.5 C 179.88,297.698 179.213,299.365 177.5,300.5C 177.796,298.597 178.463,296.93 179.5,295.5 Z"/></g>
<g><path style="opacity:0.486" fill="#858585" d="M 177.5,301.5 C 177.872,304.022 177.039,306.022 175,307.5C 173.731,306.095 173.231,304.429 173.5,302.5C 174.268,303.263 174.768,304.263 175,305.5C 175.608,303.934 176.442,302.6 177.5,301.5 Z"/></g>
<g><path style="opacity:1" fill="#95bcee" d="M 296.5,303.5 C 308.664,308.333 320.997,312.333 333.5,315.5C 330.482,315.665 327.482,315.498 324.5,315C 318.129,312.328 311.462,310.494 304.5,309.5C 301.699,307.622 299.032,305.622 296.5,303.5 Z"/></g>
<g><path style="opacity:0.192" fill="#bebebe" d="M 135.5,307.5 C 136.674,308.514 137.34,309.847 137.5,311.5C 135.896,310.713 135.229,309.38 135.5,307.5 Z"/></g>
<g><path style="opacity:0.286" fill="#b6b6b6" d="M 212.5,312.5 C 212.598,314.553 211.931,316.22 210.5,317.5C 210.402,315.447 211.069,313.78 212.5,312.5 Z"/></g>
<g><path style="opacity:0.478" fill="#b1d2f3" d="M 365.5,313.5 C 365.047,314.458 364.381,315.292 363.5,316C 353.977,318.149 344.644,317.982 335.5,315.5C 345.679,317.215 355.679,316.548 365.5,313.5 Z"/></g>
<g><path style="opacity:0.318" fill="#b1b1b1" d="M 205.5,331.5 C 205.598,333.553 204.931,335.22 203.5,336.5C 203.402,334.447 204.069,332.78 205.5,331.5 Z"/></g>
<g><path style="opacity:1" fill="#8eb9ee" d="M 296.5,303.5 C 294.167,303.5 291.833,303.5 289.5,303.5C 289.179,315.414 289.512,327.247 290.5,339C 299.93,342.781 309.596,346.114 319.5,349C 332.806,350.213 346.139,350.713 359.5,350.5C 349.347,351.494 339.014,351.828 328.5,351.5C 314.024,350.577 300.524,346.577 288,339.5C 287.333,326.833 287.333,314.167 288,301.5C 291.096,300.784 293.93,301.451 296.5,303.5 Z"/></g>
<g><path style="opacity:0.663" fill="#afcdf3" d="M 386.5,344.5 C 378.796,348.682 370.462,351.182 361.5,352C 350.326,352.826 339.326,352.659 328.5,351.5C 339.014,351.828 349.347,351.494 359.5,350.5C 368.571,349.261 377.571,347.261 386.5,344.5 Z"/></g>
</svg>
