<svg version="1.1" id="Layer_1" xmlns="http://www.w3.org/2000/svg" xmlns:xlink="http://www.w3.org/1999/xlink" x="0px" y="0px"
	 width="100%" viewBox="0 0 500 500" enable-background="new 0 0 500 500" xml:space="preserve">
<path fill="#FFFFFF" opacity="1.000000" stroke="none" 
	d="
M244.000000,501.000000 
	C162.666687,501.000000 81.833374,501.000000 1.000043,501.000000 
	C1.000029,334.333405 1.000029,167.666779 1.000014,1.000133 
	C167.666565,1.000089 334.333130,1.000089 500.999756,1.000044 
	C500.999847,167.666519 500.999847,334.333038 500.999939,500.999786 
	C415.500000,501.000000 330.000000,501.000000 244.000000,501.000000 
M356.621979,147.107162 
	C351.009369,147.749832 345.327606,148.034668 339.797363,149.103577 
	C324.424835,152.074814 310.930450,158.665604 301.831787,171.893768 
	C286.082184,194.791504 288.396332,233.139160 319.200470,252.434799 
	C331.005707,259.829590 343.962189,265.362274 356.130920,272.211060 
	C362.310608,275.689087 368.601898,279.494232 373.617767,284.403137 
	C383.455750,294.031342 380.088776,310.284576 367.221130,315.165924 
	C361.183594,317.456299 354.249023,318.451477 347.764343,318.290131 
	C329.345947,317.831848 312.274872,311.574402 295.525391,304.414032 
	C293.986450,303.756104 292.298340,303.447113 289.927887,302.757416 
	C289.927887,314.472168 290.130890,325.273071 289.826691,336.059631 
	C289.707214,340.295044 291.133972,342.774139 295.088348,343.798767 
	C306.633972,346.790344 318.055298,350.602325 329.783752,352.469940 
	C348.583862,355.463715 367.260437,353.919922 385.280762,347.107300 
	C428.846313,330.637177 431.035828,274.550751 400.631042,252.485718 
	C390.993500,245.491684 380.222443,240.047668 369.904114,234.007095 
	C360.030304,228.226730 349.715485,223.116638 340.272949,216.711700 
	C333.915253,212.399277 332.910004,205.048416 334.707062,197.753693 
	C336.551300,190.267242 341.689850,185.709061 349.061035,184.019531 
	C352.910065,183.137268 356.968964,182.825119 360.930634,182.841476 
	C375.175018,182.900223 388.465179,187.251404 401.389771,192.710510 
	C405.123474,194.287552 406.677246,193.548492 408.074280,189.953873 
	C411.326843,181.584808 414.817596,173.304840 418.382843,165.062744 
	C419.592407,162.266541 418.950684,160.800385 416.182617,159.685089 
	C397.370392,152.105515 378.129364,146.586975 356.621979,147.107162 
M260.843536,185.401764 
	C264.550232,175.207840 268.256958,165.013901 272.238464,154.064301 
	C259.079590,154.064301 246.961227,154.189560 234.848450,153.985168 
	C231.380005,153.926636 230.008484,155.158646 228.904678,158.391251 
	C212.319611,206.961807 195.582458,255.480469 178.852402,304.001434 
	C178.344955,305.473145 177.527206,306.837891 176.476776,309.045563 
	C170.788589,292.723083 165.407700,277.368896 160.086075,261.994202 
	C148.189377,227.623444 136.278687,193.257355 124.509209,158.843002 
	C123.309464,155.334930 121.736298,153.754471 117.807671,153.968597 
	C111.329781,154.321686 104.818657,154.065125 98.321541,154.065323 
	C92.725060,154.065491 87.128586,154.065369 81.012932,154.065369 
	C81.577736,156.206696 81.832916,157.633423 82.324844,158.973236 
	C105.227089,221.349991 128.170837,283.711517 151.005829,346.112885 
	C152.093811,349.086029 153.492294,350.198120 156.706848,350.152435 
	C169.531891,349.970093 182.364822,349.902985 195.186478,350.180084 
	C199.211319,350.267090 200.867401,348.982727 202.250015,345.186920 
	C221.576691,292.127563 241.105881,239.141998 260.843536,185.401764 
z"/>
<path fill="#61A6FA" opacity="1.000000" stroke="none" 
	d="
M357.103577,147.102448 
	C378.129364,146.586975 397.370392,152.105515 416.182617,159.685089 
	C418.950684,160.800385 419.592407,162.266541 418.382843,165.062744 
	C414.817596,173.304840 411.326843,181.584808 408.074280,189.953873 
	C406.677246,193.548492 405.123474,194.287552 401.389771,192.710510 
	C388.465179,187.251404 375.175018,182.900223 360.930634,182.841476 
	C356.968964,182.825119 352.910065,183.137268 349.061035,184.019531 
	C341.689850,185.709061 336.551300,190.267242 334.707062,197.753693 
	C332.910004,205.048416 333.915253,212.399277 340.272949,216.711700 
	C349.715485,223.116638 360.030304,228.226730 369.904114,234.007095 
	C380.222443,240.047668 390.993500,245.491684 400.631042,252.485718 
	C431.035828,274.550751 428.846313,330.637177 385.280762,347.107300 
	C367.260437,353.919922 348.583862,355.463715 329.783752,352.469940 
	C318.055298,350.602325 306.633972,346.790344 295.088348,343.798767 
	C291.133972,342.774139 289.707214,340.295044 289.826691,336.059631 
	C290.130890,325.273071 289.927887,314.472168 289.927887,302.757416 
	C292.298340,303.447113 293.986450,303.756104 295.525391,304.414032 
	C312.274872,311.574402 329.345947,317.831848 347.764343,318.290131 
	C354.249023,318.451477 361.183594,317.456299 367.221130,315.165924 
	C380.088776,310.284576 383.455750,294.031342 373.617767,284.403137 
	C368.601898,279.494232 362.310608,275.689087 356.130920,272.211060 
	C343.962189,265.362274 331.005707,259.829590 319.200470,252.434799 
	C288.396332,233.139160 286.082184,194.791504 301.831787,171.893768 
	C310.930450,158.665604 324.424835,152.074814 339.797363,149.103577 
	C345.327606,148.034668 351.009369,147.749832 357.103577,147.102448 
z"/>
<path fill="#020202" opacity="1.000000" stroke="none" 
	d="
M260.714630,185.770111 
	C241.105881,239.141998 221.576691,292.127563 202.250015,345.186920 
	C200.867401,348.982727 199.211319,350.267090 195.186478,350.180084 
	C182.364822,349.902985 169.531891,349.970093 156.706848,350.152435 
	C153.492294,350.198120 152.093811,349.086029 151.005829,346.112885 
	C128.170837,283.711517 105.227089,221.349991 82.324844,158.973236 
	C81.832916,157.633423 81.577736,156.206696 81.012932,154.065369 
	C87.128586,154.065369 92.725060,154.065491 98.321541,154.065323 
	C104.818657,154.065125 111.329781,154.321686 117.807671,153.968597 
	C121.736298,153.754471 123.309464,155.334930 124.509209,158.843002 
	C136.278687,193.257355 148.189377,227.623444 160.086075,261.994202 
	C165.407700,277.368896 170.788589,292.723083 176.476776,309.045563 
	C177.527206,306.837891 178.344955,305.473145 178.852402,304.001434 
	C195.582458,255.480469 212.319611,206.961807 228.904678,158.391251 
	C230.008484,155.158646 231.380005,153.926636 234.848450,153.985168 
	C246.961227,154.189560 259.079590,154.064301 272.238464,154.064301 
	C268.256958,165.013901 264.550232,175.207840 260.714630,185.770111 
z"/>
</svg>